<svg width="32" height="32" viewBox="0 0 32 32" fill="none" xmlns="http://www.w3.org/2000/svg">
  <defs>
    <linearGradient id="gradient" x1="0%" y1="0%" x2="100%" y2="100%">
      <stop offset="0%" style="stop-color:#00d4ff;stop-opacity:1" />
      <stop offset="100%" style="stop-color:#7c3aed;stop-opacity:1" />
    </linearGradient>
  </defs>
  
  <!-- Background circle -->
  <circle cx="16" cy="16" r="15" fill="url(#gradient)"/>
  
  <!-- AI Symbol - Neural network nodes -->
  <circle cx="8" cy="10" r="1.5" fill="white" opacity="0.9"/>
  <circle cx="16" cy="8" r="1.5" fill="white" opacity="0.9"/>
  <circle cx="24" cy="10" r="1.5" fill="white" opacity="0.9"/>
  <circle cx="10" cy="16" r="1.5" fill="white" opacity="0.9"/>
  <circle cx="22" cy="16" r="1.5" fill="white" opacity="0.9"/>
  <circle cx="8" cy="22" r="1.5" fill="white" opacity="0.9"/>
  <circle cx="16" cy="24" r="1.5" fill="white" opacity="0.9"/>
  <circle cx="24" cy="22" r="1.5" fill="white" opacity="0.9"/>
  
  <!-- Neural network connections -->
  <path d="M8 10 L16 8 L24 10 M8 10 L10 16 M24 10 L22 16 M10 16 L16 8 M22 16 L16 8 M10 16 L8 22 M22 16 L24 22 M8 22 L16 24 L24 22" 
        stroke="white" 
        stroke-width="0.8" 
        opacity="0.6" 
        fill="none"/>
  
  <!-- Central node -->
  <circle cx="16" cy="16" r="2" fill="white"/>
</svg>
